<svg width="65" height="32" viewBox="0 0 65 32" fill="none" xmlns="http://www.w3.org/2000/svg">
<path d="M24.8222 14.6123L25.4942 14.1323C26.7182 15.1883 28.2782 16.6883 29.0462 17.6243L28.3022 18.2003C27.5822 17.2523 26.0462 15.7163 24.8222 14.6123ZM24.9542 9.74031H25.8782V12.0923C25.8782 14.0123 25.5302 16.5443 22.4342 18.3563C22.3142 18.1643 22.0022 17.8403 21.7982 17.6843C24.7982 16.0643 24.9542 13.7483 24.9542 12.0923V9.74031ZM20.5862 11.7923H29.7662V12.6803H21.4862V20.8043H20.5862V11.7923ZM29.3582 11.7923H30.2462V19.5923C30.2462 20.1803 30.1022 20.4683 29.6942 20.6243C29.2742 20.7683 28.5302 20.7803 27.4502 20.7803C27.4142 20.5283 27.2702 20.1083 27.1502 19.8563C28.0022 19.8923 28.8182 19.8923 29.0582 19.8803C29.2862 19.8683 29.3582 19.7963 29.3582 19.5923V11.7923ZM35.3822 12.2483L36.2462 12.5243C35.4542 13.5803 34.2302 14.5763 33.1382 15.2123C33.0062 15.0323 32.6822 14.6723 32.4902 14.5043C33.5702 13.9643 34.6982 13.1243 35.3822 12.2483ZM38.4422 12.7523L39.0542 12.2363C40.1582 12.8723 41.5382 13.8683 42.2222 14.5523L41.5502 15.1643C40.9022 14.4683 39.5582 13.4483 38.4422 12.7523ZM37.4222 14.4083C36.4382 15.7043 34.4702 17.2403 32.4662 18.2123C32.3582 17.9963 32.1302 17.6603 31.9502 17.4683C33.9782 16.5443 35.9702 14.9483 36.9182 13.5803H37.8182C39.1022 15.1163 41.1542 16.5443 43.0022 17.3003C42.7982 17.5163 42.5822 17.8523 42.4382 18.1043C40.6502 17.2643 38.5382 15.7643 37.4222 14.4083ZM34.0982 16.7603H40.7462V20.7443H39.8342V17.5643H34.9742V20.7923H34.0982V16.7603ZM34.5182 19.5803H40.3142V20.3843H34.5182V19.5803ZM36.9182 9.74031H37.8422V11.3123H36.9182V9.74031ZM32.3942 10.8563H42.4142V13.0403H41.5022V11.6723H33.2822V13.0403H32.3942V10.8563Z" fill="black"/>
<rect x="0.25" y="0.25" width="64.5" height="31.5" rx="15.25" stroke="black" stroke-width="0.5"/>
</svg>
