<svg width="20" height="180" viewBox="0 0 20 180" fill="none" xmlns="http://www.w3.org/2000/svg">
<path d="M4.2 2.56C3.66667 2.56 3.02 2.58667 2.26 2.64L1.78 2.68C1.64667 2.69333 1.54 2.66 1.46 2.58C1.39333 2.48667 1.36 2.38667 1.36 2.28C1.36 2.16 1.39333 2.06 1.46 1.98C1.54 1.9 1.64667 1.86667 1.78 1.88L2.26 1.92C3.1 1.97333 3.74667 2 4.2 2H6.68C6.77333 2 6.84667 1.97333 6.9 1.92C6.95333 1.86667 6.98 1.79333 6.98 1.7V1.18C6.98 0.846666 7.07333 0.599999 7.26 0.439999C7.46 0.266666 7.70667 0.18 8 0.18C8.24 0.18 8.44 0.226666 8.6 0.319999C8.76 0.413333 8.84 0.506666 8.84 0.599999C8.84 0.706666 8.73333 0.766666 8.52 0.779999C8.44 0.793332 8.37333 0.839999 8.32 0.92C8.28 0.999999 8.26 1.08667 8.26 1.18V1.7C8.26 1.79333 8.28667 1.86667 8.34 1.92C8.39333 1.97333 8.46667 2 8.56 2H11.44C11.5333 2 11.6067 1.97333 11.66 1.92C11.7133 1.86667 11.74 1.79333 11.74 1.7V1.18C11.74 0.846666 11.8333 0.599999 12.02 0.439999C12.22 0.266666 12.4667 0.18 12.76 0.18C13 0.18 13.2 0.226666 13.36 0.319999C13.52 0.413333 13.6 0.506666 13.6 0.599999C13.6 0.706666 13.4933 0.766666 13.28 0.779999C13.2 0.793332 13.1333 0.839999 13.08 0.92C13.04 0.999999 13.02 1.08667 13.02 1.18V1.7C13.02 1.79333 13.0467 1.86667 13.1 1.92C13.1533 1.97333 13.2267 2 13.32 2H15.22C15.4867 2 15.7067 1.94667 15.88 1.84C16.0667 1.72 16.26 1.56 16.46 1.36C16.7533 1.06667 17.0533 0.92 17.36 0.92C17.5333 0.92 17.7067 0.973333 17.88 1.08C18.08 1.21333 18.2667 1.37333 18.44 1.56C18.5867 1.73333 18.66 1.9 18.66 2.06C18.66 2.20667 18.6 2.32667 18.48 2.42C18.36 2.51333 18.1867 2.56 17.96 2.56L13.32 2.58C13.2267 2.58 13.1533 2.60667 13.1 2.66C13.0467 2.71333 13.02 2.78667 13.02 2.88L13.04 3.36C13.0533 3.6 12.9667 3.8 12.78 3.96C12.5933 4.10667 12.3933 4.18 12.18 4.18C12.0467 4.18 11.9333 4.14 11.84 4.06C11.7467 3.96667 11.7 3.84 11.7 3.68L11.72 2.88C11.72 2.68 11.6267 2.58 11.44 2.58L8.56 2.56C8.46667 2.56 8.39333 2.58667 8.34 2.64C8.28667 2.69333 8.26 2.76667 8.26 2.86L8.28 3.36C8.29333 3.6 8.20667 3.8 8.02 3.96C7.83333 4.10667 7.63333 4.18 7.42 4.18C7.28667 4.18 7.17333 4.14 7.08 4.06C6.98667 3.96667 6.94 3.84 6.94 3.68L6.96 2.86C6.96 2.66 6.86667 2.56 6.68 2.56H4.2ZM2.28 17.82C4.25333 17.1133 5.74 15.8667 6.74 14.08C7.74 12.2933 8.27333 10.2867 8.34 8.06C8.34 7.83333 8.28 7.66 8.16 7.54C8.04 7.42 7.86667 7.36 7.64 7.36H4.46C3.92667 7.36 3.28 7.38667 2.52 7.44L2.04 7.48C1.90667 7.49333 1.8 7.46 1.72 7.38C1.65333 7.28667 1.62 7.18667 1.62 7.08C1.62 6.96 1.65333 6.86 1.72 6.78C1.8 6.7 1.90667 6.66667 2.04 6.68L2.52 6.72C3.36 6.77333 4.00667 6.8 4.46 6.8H8.46C8.68667 6.8 8.86 6.74 8.98 6.62C9.1 6.48667 9.16 6.31333 9.16 6.1V4.74C9.16 4.40667 9.25333 4.16 9.44 4C9.64 3.82667 9.88667 3.74 10.18 3.74C10.42 3.74 10.62 3.78667 10.78 3.88C10.94 3.97333 11.02 4.06667 11.02 4.16C11.02 4.26667 10.9133 4.32667 10.7 4.34C10.62 4.35333 10.5533 4.4 10.5 4.48C10.46 4.56 10.44 4.64667 10.44 4.74V6.1C10.44 6.31333 10.5 6.48667 10.62 6.62C10.7533 6.74 10.9267 6.8 11.14 6.8H14.88C15.1467 6.8 15.3667 6.74667 15.54 6.64C15.7267 6.52 15.92 6.36 16.12 6.16C16.4133 5.86667 16.7133 5.72 17.02 5.72C17.1933 5.72 17.3667 5.77333 17.54 5.88C17.74 6.01333 17.9267 6.17333 18.1 6.36C18.2467 6.53333 18.32 6.7 18.32 6.86C18.32 7.00667 18.26 7.12667 18.14 7.22C18.02 7.31333 17.8467 7.36 17.62 7.36L14.88 7.38L10.28 7.36C9.84 7.36 9.60667 7.58667 9.58 8.04C9.55333 8.46667 9.51333 8.89333 9.46 9.32C9.44667 9.36 9.44 9.42 9.44 9.5C9.44 9.68667 9.49333 9.83333 9.6 9.94C9.72 10.0333 9.88667 10.08 10.1 10.08H12.66C12.78 10.0667 12.8867 10.0333 12.98 9.98C13.0867 9.91333 13.2 9.82667 13.32 9.72C13.52 9.52 13.6867 9.42 13.82 9.42C14.0333 9.40667 14.2533 9.46 14.48 9.58C14.72 9.68667 14.92 9.82667 15.08 10C15.24 10.16 15.3267 10.2933 15.34 10.4C15.3533 10.4933 15.3333 10.5667 15.28 10.62C15.24 10.6733 15.18 10.7333 15.1 10.8C14.9933 10.88 14.9067 10.9667 14.84 11.06C14.7867 11.1533 14.76 11.2867 14.76 11.46C14.76 13.1533 14.58 14.5667 14.22 15.7C13.86 16.82 13.2667 17.6267 12.44 18.12C12.0533 18.36 11.7333 18.48 11.48 18.48C11.4133 18.48 11.34 18.4667 11.26 18.44C11.0867 18.3733 10.9667 18.3 10.9 18.22C10.8467 18.14 10.8 18.0333 10.76 17.9C10.7333 17.78 10.6867 17.68 10.62 17.6C10.5533 17.52 10.4333 17.44 10.26 17.36C9.63333 17.0933 9.07333 16.8867 8.58 16.74C8.35333 16.66 8.24 16.5333 8.24 16.36C8.24 16.2667 8.28 16.1867 8.36 16.12C8.45333 16.0533 8.56 16.04 8.68 16.08C8.74667 16.0933 9.04 16.18 9.56 16.34C10.0933 16.5 10.5867 16.6067 11.04 16.66C11.36 16.6867 11.6533 16.62 11.92 16.46C12.9867 15.8067 13.52 14.3733 13.52 12.16L13.5 11.5C13.4867 11.2067 13.4 10.9867 13.24 10.84C13.08 10.6933 12.86 10.62 12.58 10.62H9.86C9.46 10.62 9.20667 10.82 9.1 11.22C8.66 12.8467 7.90667 14.3 6.84 15.58C5.77333 16.8467 4.27333 17.78 2.34 18.38C2.31333 18.3933 2.28 18.4 2.24 18.4C2.16 18.4 2.09333 18.3733 2.04 18.32C2 18.28 1.98 18.2267 1.98 18.16C1.98 18 2.08 17.8867 2.28 17.82ZM11.6 30.14C11.0667 30.14 10.42 30.1667 9.66 30.22L9.18 30.26C9.04667 30.2733 8.94 30.24 8.86 30.16C8.79333 30.0667 8.76 29.9667 8.76 29.86C8.76 29.74 8.79333 29.64 8.86 29.56C8.94 29.48 9.04667 29.4467 9.18 29.46L9.66 29.5C10.5 29.5533 11.1467 29.58 11.6 29.58H12.58C12.8067 29.58 12.98 29.52 13.1 29.4C13.22 29.2667 13.28 29.0933 13.28 28.88V27.88C13.28 27.5467 13.3733 27.3 13.56 27.14C13.76 26.9667 14.0067 26.88 14.3 26.88C14.54 26.88 14.74 26.9267 14.9 27.02C15.06 27.1133 15.14 27.2067 15.14 27.3C15.14 27.4067 15.0333 27.4667 14.82 27.48C14.74 27.4933 14.6733 27.54 14.62 27.62C14.58 27.7 14.56 27.7867 14.56 27.88V28.88C14.56 29.0933 14.62 29.2667 14.74 29.4C14.8733 29.52 15.0467 29.58 15.26 29.58H16.32C16.5867 29.58 16.8067 29.5267 16.98 29.42C17.1667 29.3 17.36 29.14 17.56 28.94C17.8533 28.6467 18.1533 28.5 18.46 28.5C18.6333 28.5 18.8067 28.5533 18.98 28.66C19.18 28.7933 19.3667 28.9533 19.54 29.14C19.6867 29.3133 19.76 29.48 19.76 29.64C19.76 29.7867 19.7 29.9067 19.58 30C19.46 30.0933 19.2867 30.14 19.06 30.14L16.32 30.16L11.6 30.14ZM0.66 29.02C0.526667 29.0333 0.42 29 0.34 28.92C0.273333 28.8267 0.24 28.7267 0.24 28.62C0.24 28.5 0.273333 28.4 0.34 28.32C0.42 28.24 0.526667 28.2067 0.66 28.22L1.14 28.26C1.98 28.3133 2.62667 28.34 3.08 28.34H6.24C6.50667 28.34 6.72667 28.2867 6.9 28.18C7.08667 28.06 7.28 27.9 7.48 27.7C7.77333 27.4067 8.06667 27.26 8.36 27.26C8.72 27.26 9.08667 27.4733 9.46 27.9C9.60667 28.0733 9.68 28.24 9.68 28.4C9.68 28.5467 9.62 28.6667 9.5 28.76C9.38 28.8533 9.20667 28.9 8.98 28.9L6.68 28.92C6.46667 28.92 6.29333 28.98 6.16 29.1C6.04 29.22 5.98 29.3933 5.98 29.62V32.1C5.98 32.1933 6.00667 32.2667 6.06 32.32C6.11333 32.3733 6.18667 32.4 6.28 32.4H6.3C6.42 32.4 6.53333 32.3733 6.64 32.32C6.76 32.2533 6.86667 32.18 6.96 32.1C7.04 32.0333 7.12667 31.9733 7.22 31.92C7.31333 31.8533 7.40667 31.82 7.5 31.82C7.71333 31.82 7.92667 31.8867 8.14 32.02C8.36667 32.1533 8.55333 32.3067 8.7 32.48C8.86 32.6533 8.94 32.7933 8.94 32.9C8.94 32.9933 8.92 33.0667 8.88 33.12C8.84 33.16 8.78 33.2133 8.7 33.28C8.59333 33.36 8.50667 33.4467 8.44 33.54C8.38667 33.6333 8.36 33.7733 8.36 33.96V44.58C8.36 44.8333 8.26667 45.0333 8.08 45.18C7.89333 45.3267 7.68667 45.4 7.46 45.4C7.26 45.4 7.13333 45.3133 7.08 45.14C7.04 44.98 7.02 44.66 7.02 44.18C7.02 43.94 6.96 43.7533 6.84 43.62C6.72 43.4733 6.54667 43.4 6.32 43.4H2.9C2.67333 43.4 2.5 43.4533 2.38 43.56C2.26 43.6533 2.2 43.7933 2.2 43.98C2.2 44.4867 2.11333 44.8467 1.94 45.06C1.76667 45.2867 1.56 45.4 1.32 45.4C1.18667 45.4 1.07333 45.36 0.98 45.28C0.9 45.2 0.86 45.0867 0.86 44.94L0.88 43.78C0.893333 43.5533 0.9 43.2733 0.9 42.94L0.92 32.1C0.92 31.9533 1.02 31.88 1.22 31.88C1.46 31.88 1.65333 31.9133 1.8 31.98C1.96 32.0467 2.12 32.1333 2.28 32.24C2.44 32.3467 2.55333 32.4 2.62 32.4H2.92C3.01333 32.4 3.08667 32.3733 3.14 32.32C3.19333 32.2667 3.22 32.1933 3.22 32.1L3.26 29.6C3.26 29.1333 3.04667 28.9 2.62 28.9L1.12 28.98L0.66 29.02ZM4.28 32.1C4.28 32.1933 4.30667 32.2667 4.36 32.32C4.41333 32.3733 4.48667 32.4 4.58 32.4H4.6C4.69333 32.4 4.76667 32.3733 4.82 32.32C4.87333 32.2667 4.9 32.1933 4.9 32.1V29.22C4.9 29.1267 4.87333 29.0533 4.82 29C4.78 28.9333 4.71333 28.9 4.62 28.9C4.52667 28.9 4.45333 28.9267 4.4 28.98C4.34667 29.0333 4.32 29.1067 4.32 29.2L4.28 32.1ZM10.34 30.98C10.34 30.8333 10.44 30.76 10.64 30.76C10.88 30.76 11.0733 30.7933 11.22 30.86C11.38 30.9267 11.54 31.0133 11.7 31.12C11.86 31.2267 11.9733 31.28 12.04 31.28H15.02C15.14 31.28 15.2533 31.2533 15.36 31.2C15.48 31.1333 15.5867 31.06 15.68 30.98C15.76 30.9133 15.8467 30.8533 15.94 30.8C16.0333 30.7333 16.1267 30.7 16.22 30.7C16.4333 30.7 16.6467 30.7667 16.86 30.9C17.0867 31.0333 17.2733 31.1867 17.42 31.36C17.58 31.5333 17.66 31.6733 17.66 31.78C17.66 31.8733 17.64 31.9467 17.6 32C17.56 32.04 17.5 32.0933 17.42 32.16C17.3133 32.24 17.2267 32.3267 17.16 32.42C17.1067 32.5133 17.08 32.6533 17.08 32.84V34.44C17.08 34.6667 16.9933 34.8467 16.82 34.98C16.6467 35.1 16.44 35.16 16.2 35.16C15.9333 35.16 15.78 34.98 15.74 34.62C15.6733 34.2733 15.44 34.1 15.04 34.1H12.32C11.8933 34.1 11.66 34.2333 11.62 34.5C11.5667 34.7 11.46 34.86 11.3 34.98C11.14 35.1 10.96 35.16 10.76 35.16C10.64 35.16 10.54 35.12 10.46 35.04C10.38 34.96 10.34 34.84 10.34 34.68V30.98ZM11.62 32.84C11.62 33.0533 11.68 33.2267 11.8 33.36C11.9333 33.48 12.1067 33.54 12.32 33.54L15.1 33.56C15.3267 33.56 15.5 33.5 15.62 33.38C15.74 33.2467 15.8 33.0733 15.8 32.86V32.52C15.8 32.2933 15.74 32.12 15.62 32C15.5 31.88 15.3267 31.82 15.1 31.82H12.32C12.1067 31.82 11.9333 31.88 11.8 32C11.68 32.12 11.62 32.2933 11.62 32.52V32.84ZM2.2 39.82C2.2 40.0333 2.26 40.2067 2.38 40.34C2.51333 40.46 2.68667 40.52 2.9 40.52H6.38C6.60667 40.52 6.78 40.46 6.9 40.34C7.02 40.2067 7.08 40.0333 7.08 39.82V37.74C7.08 37.62 7.04667 37.54 6.98 37.5C6.91333 37.46 6.80667 37.44 6.66 37.44C5.48667 37.44 4.9 36.6733 4.9 35.14V33.24C4.9 33.1467 4.87333 33.0733 4.82 33.02C4.76667 32.9667 4.69333 32.94 4.6 32.94H4.58C4.38 32.94 4.28 33.04 4.28 33.24C4.22667 34.28 4.03333 35.1733 3.7 35.92C3.38 36.6667 2.94667 37.22 2.4 37.58C2.26667 37.66 2.2 37.78 2.2 37.94V39.82ZM5.98 34.64C5.98 35.2933 6.02667 35.7533 6.12 36.02C6.22667 36.2733 6.44667 36.4067 6.78 36.42C6.87333 36.42 6.94667 36.3933 7 36.34C7.05333 36.2733 7.08 36.1933 7.08 36.1V33.64C7.08 33.4133 7.02 33.24 6.9 33.12C6.78 33 6.60667 32.94 6.38 32.94H6.28C6.18667 32.94 6.11333 32.9667 6.06 33.02C6.00667 33.0733 5.98 33.1467 5.98 33.24V34.64ZM2.2 36.28C2.2 36.36 2.21333 36.4267 2.24 36.48C2.28 36.5333 2.32667 36.56 2.38 36.56C2.44667 36.56 2.51333 36.5067 2.58 36.4C2.95333 35.64 3.16 34.5933 3.2 33.26V33.22C3.2 33.0467 3.11333 32.96 2.94 32.96C2.67333 32.96 2.48 33.0133 2.36 33.12C2.25333 33.2267 2.2 33.4 2.2 33.64V36.28ZM9.36 40.48C9.22667 40.4933 9.12 40.46 9.04 40.38C8.97333 40.2867 8.94 40.1867 8.94 40.08C8.94 39.96 8.97333 39.86 9.04 39.78C9.12 39.7 9.22667 39.6667 9.36 39.68L9.84 39.72C10.68 39.7733 11.3267 39.8 11.78 39.8H13.06C13.1533 39.8 13.2267 39.7733 13.28 39.72C13.3333 39.6667 13.36 39.5933 13.36 39.5V38.68C13.36 38.5333 13.46 38.46 13.66 38.46C13.82 38.46 13.9733 38.5 14.12 38.58C14.1867 38.6333 14.26 38.66 14.34 38.66C14.42 38.66 14.4867 38.6333 14.54 38.58C14.9267 38.2867 15.3333 37.88 15.76 37.36C15.8533 37.2533 15.9 37.1467 15.9 37.04C15.9 36.9467 15.86 36.8733 15.78 36.82C15.7 36.7667 15.5933 36.74 15.46 36.74L12.6 36.76C12.0667 36.76 11.42 36.7867 10.66 36.84L10.18 36.88C10.0467 36.8933 9.94 36.86 9.86 36.78C9.79333 36.6867 9.76 36.5867 9.76 36.48C9.76 36.36 9.79333 36.26 9.86 36.18C9.94 36.1 10.0467 36.0667 10.18 36.08L10.66 36.12C11.5 36.1733 12.1467 36.2 12.6 36.2L15.46 36.18C15.66 36.18 15.88 36.06 16.12 35.82C16.32 35.62 16.4867 35.52 16.62 35.52C16.8333 35.5067 17.0533 35.56 17.28 35.68C17.52 35.7867 17.72 35.9267 17.88 36.1C18.04 36.26 18.1267 36.3933 18.14 36.5C18.1533 36.6867 18.1067 36.84 18 36.96C17.8933 37.08 17.6733 37.24 17.34 37.44C16.9133 37.6933 16.4267 38.0267 15.88 38.44C15.76 38.5333 15.6133 38.6467 15.44 38.78C15.2667 38.9 15.0667 39.0333 14.84 39.18C14.7067 39.26 14.64 39.38 14.64 39.54C14.64 39.62 14.6667 39.6867 14.72 39.74C14.7733 39.78 14.8467 39.8 14.94 39.8H16.16C16.4267 39.8 16.6467 39.7467 16.82 39.64C17.0067 39.52 17.2 39.36 17.4 39.16C17.6933 38.8667 17.9933 38.72 18.3 38.72C18.4733 38.72 18.6467 38.7733 18.82 38.88C19.02 39.0133 19.2067 39.1733 19.38 39.36C19.5267 39.5333 19.6 39.7 19.6 39.86C19.6 40.0067 19.54 40.1267 19.42 40.22C19.3 40.3133 19.1267 40.36 18.9 40.36L14.94 40.38C14.8467 40.38 14.7733 40.4067 14.72 40.46C14.6667 40.5133 14.64 40.5867 14.64 40.68V43.74C14.64 44.2733 14.4467 44.6667 14.06 44.92C13.6867 45.1733 13.26 45.3 12.78 45.3C12.6333 45.3 12.54 45.2733 12.5 45.22C12.46 45.18 12.4333 45.1 12.42 44.98C12.4067 44.82 12.36 44.6733 12.28 44.54C12.2133 44.42 12.0667 44.2933 11.84 44.16C11.5867 44.0267 11.3533 43.9133 11.14 43.82C10.94 43.7133 10.7733 43.6267 10.64 43.56C10.2133 43.3733 9.91333 43.2267 9.74 43.12C9.58 43.0133 9.5 42.9 9.5 42.78C9.5 42.7 9.53333 42.6333 9.6 42.58C9.66667 42.5267 9.74667 42.5 9.84 42.5C9.90667 42.5 10.1667 42.6 10.62 42.8C11.34 43.12 11.8333 43.2867 12.1 43.3C12.4867 43.3133 12.7933 43.2467 13.02 43.1C13.2467 42.94 13.36 42.6933 13.36 42.36V40.66C13.36 40.5667 13.3333 40.4933 13.28 40.44C13.2267 40.3867 13.1533 40.36 13.06 40.36H11.78C11.2467 40.36 10.6 40.3867 9.84 40.44L9.36 40.48ZM2.9 41.06C2.68667 41.06 2.51333 41.12 2.38 41.24C2.26 41.36 2.2 41.5333 2.2 41.76V42.14C2.2 42.3533 2.26 42.5267 2.38 42.66C2.51333 42.78 2.68667 42.84 2.9 42.84L6.38 42.86C6.60667 42.86 6.78 42.8 6.9 42.68C7.02 42.5467 7.08 42.3733 7.08 42.16V41.76C7.08 41.5333 7.02 41.36 6.9 41.24C6.78 41.12 6.60667 41.06 6.38 41.06H2.9ZM3.62 69.64C3.42 69.64 3.25333 69.5733 3.12 69.44C2.98667 69.3067 2.92 69.1333 2.92 68.92C2.92 68.5867 3.09333 68.2533 3.44 67.92C4.14667 67.2533 4.76667 66.4133 5.3 65.4C5.84667 64.3867 6.26667 63.3733 6.56 62.36C6.58667 62.2933 6.6 62.2067 6.6 62.1C6.6 61.9267 6.54 61.8 6.42 61.72C6.3 61.64 6.13333 61.6067 5.92 61.62C5.82667 61.6333 5.67333 61.64 5.46 61.64C5.1 61.64 4.82667 61.6 4.64 61.52C4.29333 61.4 4 61.1933 3.76 60.9C3.53333 60.6067 3.36 60.3 3.24 59.98C3.12 59.66 3.06 59.4067 3.06 59.22C3.06 59.1 3.1 59.04 3.18 59.04C3.24667 59.04 3.36 59.14 3.52 59.34C3.70667 59.58 3.9 59.7867 4.1 59.96C4.31333 60.1333 4.57333 60.2667 4.88 60.36C5.28 60.4933 5.80667 60.56 6.46 60.56C6.86 60.5333 7.09333 60.3133 7.16 59.9C7.25333 59.2733 7.3 58.6867 7.3 58.14C7.3 57.4867 7.22667 56.96 7.08 56.56C6.93333 56.1467 6.7 55.94 6.38 55.94C6.28667 55.94 6.22 55.9267 6.18 55.9C6.14 55.8733 6.12 55.8133 6.12 55.72C6.12 55.5467 6.18667 55.4133 6.32 55.32C6.46667 55.2267 6.65333 55.18 6.88 55.18C7.17333 55.18 7.44667 55.2533 7.7 55.4C7.96667 55.5467 8.18 55.7267 8.34 55.94C8.51333 56.1533 8.6 56.36 8.6 56.56C8.6 56.68 8.57333 56.9133 8.52 57.26C8.50667 57.3 8.5 57.36 8.5 57.44C8.5 57.6667 8.61333 57.86 8.84 58.02C9.30667 58.3533 9.7 58.6067 10.02 58.78C10.34 58.9533 10.66 59.04 10.98 59.04C11.2733 59.04 11.5267 59.1 11.74 59.22C11.9533 59.34 12.06 59.4733 12.06 59.62C12.06 59.86 11.6667 60.14 10.88 60.46C10.0933 60.78 9.26 61.0467 8.38 61.26C8.00667 61.34 7.78 61.5667 7.7 61.94C7.38 63.3267 6.94667 64.6933 6.4 66.04C5.85333 67.3733 5.23333 68.4067 4.54 69.14C4.24667 69.4733 3.94 69.64 3.62 69.64ZM8.22 59.3C8.20667 59.34 8.2 59.4 8.2 59.48C8.2 59.8133 8.34667 59.98 8.64 59.98C8.76 59.98 8.88 59.9533 9 59.9C9.08 59.8733 9.24 59.7867 9.48 59.64C9.65333 59.5467 9.74 59.42 9.74 59.26C9.74 59.14 9.68667 59.0333 9.58 58.94L9.08 58.52C8.94667 58.4133 8.82667 58.36 8.72 58.36C8.61333 58.36 8.52 58.4067 8.44 58.5C8.37333 58.5933 8.32667 58.7267 8.3 58.9L8.22 59.3ZM11.24 72C10.7867 72 10.3333 71.9133 9.88 71.74C9.44 71.5667 9.07333 71.3333 8.78 71.04C8.48667 70.7467 8.32667 70.4267 8.3 70.08C8.22 69.2933 8.50667 68.6933 9.16 68.28C9.82667 67.8667 10.6267 67.66 11.56 67.66L12.12 67.68C12.44 67.68 12.58 67.52 12.54 67.2C12.4733 66.6267 12.44 66.1267 12.44 65.7C12.44 63.5267 13.2133 62.1067 14.76 61.44C15.04 61.3333 15.18 61.1533 15.18 60.9C15.18 60.66 15.0533 60.4467 14.8 60.26C14.5467 60.0733 14.2467 60 13.9 60.04C13.86 60.0533 13.78 60.06 13.66 60.06C13.46 60.06 13.36 60.0267 13.36 59.96C13.36 59.88 13.4667 59.8133 13.68 59.76C13.9067 59.6933 14.1 59.66 14.26 59.66C14.7667 59.66 15.26 59.7733 15.74 60C16.22 60.2267 16.6067 60.5133 16.9 60.86C17.2067 61.1933 17.36 61.52 17.36 61.84C17.36 62.0533 17.2933 62.2267 17.16 62.36C17.04 62.4933 16.8933 62.56 16.72 62.56C16.5867 62.56 16.44 62.5133 16.28 62.42C16.12 62.3267 16.0267 62.2667 16 62.24C15.8133 62.1067 15.64 62.0067 15.48 61.94C15.3333 61.8733 15.18 61.84 15.02 61.84C14.54 61.84 14.1467 62.0467 13.84 62.46C13.5333 62.8733 13.38 63.56 13.38 64.52C13.38 64.9733 13.4133 65.4933 13.48 66.08C13.5467 66.6667 13.62 67.22 13.7 67.74C13.74 68.0067 13.8867 68.1867 14.14 68.28C14.7667 68.5067 15.3133 68.8 15.78 69.16C16.26 69.52 16.5 69.92 16.5 70.36C16.5 70.56 16.4467 70.7267 16.34 70.86C16.2467 70.9933 16.12 71.06 15.96 71.06C15.7333 71.06 15.48 70.92 15.2 70.64C15.0533 70.48 14.78 70.2267 14.38 69.88C14.26 69.8 14.16 69.76 14.08 69.76C13.9067 69.76 13.7867 69.8867 13.72 70.14C13.6667 70.3133 13.58 70.5267 13.46 70.78C13.2333 71.1933 12.9267 71.5 12.54 71.7C12.1533 71.9 11.72 72 11.24 72ZM10.8 70.92C11.28 70.92 11.6867 70.7667 12.02 70.46C12.3667 70.1533 12.58 69.76 12.66 69.28L12.68 69.16C12.68 68.9467 12.56 68.7867 12.32 68.68C11.8533 68.5067 11.38 68.42 10.9 68.42C10.34 68.42 9.88 68.5467 9.52 68.8C9.17333 69.0533 9.02 69.4067 9.06 69.86C9.08667 70.1133 9.28 70.3533 9.64 70.58C10 70.8067 10.3867 70.92 10.8 70.92ZM3.56 98.64C3.24 98.8 3.00667 98.88 2.86 98.88C2.71333 98.88 2.64 98.8333 2.64 98.74C2.64 98.66 2.69333 98.56 2.8 98.44C2.92 98.3333 3.08667 98.22 3.3 98.1C3.92667 97.7667 4.59333 97.1733 5.3 96.32C6.02 95.4533 6.68667 94.38 7.3 93.1C7.92667 91.8067 8.40667 90.4 8.74 88.88C8.75333 88.84 8.76 88.78 8.76 88.7C8.76 88.4867 8.69333 88.3333 8.56 88.24C8.42667 88.1467 8.24 88.12 8 88.16C7.45333 88.2533 6.92 88.3667 6.4 88.5C5.86667 88.62 5.52 88.68 5.36 88.68C5.17333 88.68 4.99333 88.6467 4.82 88.58C4.66 88.5133 4.47333 88.3933 4.26 88.22C4.03333 88.0333 3.84 87.82 3.68 87.58C3.53333 87.34 3.46 87.14 3.46 86.98C3.46 86.8467 3.52667 86.78 3.66 86.78C3.80667 86.78 3.98667 86.8533 4.2 87C4.53333 87.2 5.28667 87.3 6.46 87.3C7.04667 87.3 7.67333 87.28 8.34 87.24C8.78 87.2267 9.02 87 9.06 86.56C9.07333 86.4533 9.1 86.08 9.14 85.44C9.16667 85.0133 9.18 84.6733 9.18 84.42C9.18 83.5667 9.01333 83.0267 8.68 82.8C8.56 82.72 8.5 82.6267 8.5 82.52C8.5 82.44 8.52667 82.38 8.58 82.34C8.64667 82.2867 8.73333 82.26 8.84 82.26C9.04 82.26 9.35333 82.3667 9.78 82.58C10.22 82.7933 10.5133 83.0133 10.66 83.24C10.7933 83.4533 10.86 83.64 10.86 83.8C10.86 83.8933 10.84 84.0267 10.8 84.2C10.76 84.36 10.7267 84.5067 10.7 84.64C10.62 84.9333 10.5267 85.5 10.42 86.34C10.3933 86.58 10.44 86.7667 10.56 86.9C10.68 87.02 10.86 87.0733 11.1 87.06C13.1 86.8867 14.32 86.5933 14.76 86.18C14.8533 86.0867 14.9867 86.04 15.16 86.04C15.3733 86.04 15.62 86.1133 15.9 86.26C16.18 86.3933 16.4133 86.56 16.6 86.76C16.8 86.96 16.9 87.14 16.9 87.3C16.9 87.42 16.8467 87.5133 16.74 87.58C16.6467 87.6467 16.56 87.86 16.48 88.22C16.4133 88.5667 16.3333 89.1333 16.24 89.92C16.0267 91.6533 15.7667 93.1667 15.46 94.46C15.1667 95.74 14.6933 96.8333 14.04 97.74C13.8267 98.02 13.5733 98.16 13.28 98.16C13.0933 98.16 12.92 98.0867 12.76 97.94C12.6133 97.78 12.5067 97.5467 12.44 97.24C12.3867 96.9867 12.14 96.72 11.7 96.44C11.26 96.1467 10.86 95.9133 10.5 95.74C10.14 95.5533 9.91333 95.4333 9.82 95.38C9.63333 95.2733 9.54 95.1533 9.54 95.02C9.54 94.9667 9.56 94.92 9.6 94.88C9.64 94.84 9.69333 94.82 9.76 94.82C9.86667 94.82 9.98667 94.8667 10.12 94.96C11.0533 95.5333 11.8067 95.82 12.38 95.82C12.9 95.82 13.32 95.6067 13.64 95.18C14.0267 94.6733 14.34 93.8267 14.58 92.64C14.82 91.44 14.94 90.3267 14.94 89.3C14.94 88.34 14.8333 87.8 14.62 87.68C14.38 87.56 14.0733 87.5 13.7 87.5C13.4467 87.5 12.8933 87.5533 12.04 87.66C11.88 87.6733 11.7 87.6933 11.5 87.72C11.3 87.7467 11.0733 87.7733 10.82 87.8C10.62 87.8133 10.4467 87.9333 10.3 88.16C10.1533 88.3733 10.0267 88.7 9.92 89.14C9.52 90.7133 8.95333 92.1533 8.22 93.46C7.5 94.7667 6.72667 95.86 5.9 96.74C5.07333 97.6067 4.29333 98.24 3.56 98.64ZM3.56 125.64C3.24 125.8 3.00667 125.88 2.86 125.88C2.71333 125.88 2.64 125.833 2.64 125.74C2.64 125.66 2.69333 125.56 2.8 125.44C2.92 125.333 3.08667 125.22 3.3 125.1C3.92667 124.767 4.59333 124.173 5.3 123.32C6.02 122.453 6.68667 121.38 7.3 120.1C7.92667 118.807 8.40667 117.4 8.74 115.88C8.75333 115.84 8.76 115.78 8.76 115.7C8.76 115.487 8.69333 115.333 8.56 115.24C8.42667 115.147 8.24 115.12 8 115.16C7.45333 115.253 6.92 115.367 6.4 115.5C5.86667 115.62 5.52 115.68 5.36 115.68C5.17333 115.68 4.99333 115.647 4.82 115.58C4.66 115.513 4.47333 115.393 4.26 115.22C4.03333 115.033 3.84 114.82 3.68 114.58C3.53333 114.34 3.46 114.14 3.46 113.98C3.46 113.847 3.52667 113.78 3.66 113.78C3.80667 113.78 3.98667 113.853 4.2 114C4.53333 114.2 5.28667 114.3 6.46 114.3C7.04667 114.3 7.67333 114.28 8.34 114.24C8.78 114.227 9.02 114 9.06 113.56C9.07333 113.453 9.1 113.08 9.14 112.44C9.16667 112.013 9.18 111.673 9.18 111.42C9.18 110.567 9.01333 110.027 8.68 109.8C8.56 109.72 8.5 109.627 8.5 109.52C8.5 109.44 8.52667 109.38 8.58 109.34C8.64667 109.287 8.73333 109.26 8.84 109.26C9.04 109.26 9.35333 109.367 9.78 109.58C10.22 109.793 10.5133 110.013 10.66 110.24C10.7933 110.453 10.86 110.64 10.86 110.8C10.86 110.893 10.84 111.027 10.8 111.2C10.76 111.36 10.7267 111.507 10.7 111.64C10.62 111.933 10.5267 112.5 10.42 113.34C10.3933 113.58 10.44 113.767 10.56 113.9C10.68 114.02 10.86 114.073 11.1 114.06C13.1 113.887 14.32 113.593 14.76 113.18C14.8533 113.087 14.9867 113.04 15.16 113.04C15.3733 113.04 15.62 113.113 15.9 113.26C16.18 113.393 16.4133 113.56 16.6 113.76C16.8 113.96 16.9 114.14 16.9 114.3C16.9 114.42 16.8467 114.513 16.74 114.58C16.6467 114.647 16.56 114.86 16.48 115.22C16.4133 115.567 16.3333 116.133 16.24 116.92C16.0267 118.653 15.7667 120.167 15.46 121.46C15.1667 122.74 14.6933 123.833 14.04 124.74C13.8267 125.02 13.5733 125.16 13.28 125.16C13.0933 125.16 12.92 125.087 12.76 124.94C12.6133 124.78 12.5067 124.547 12.44 124.24C12.3867 123.987 12.14 123.72 11.7 123.44C11.26 123.147 10.86 122.913 10.5 122.74C10.14 122.553 9.91333 122.433 9.82 122.38C9.63333 122.273 9.54 122.153 9.54 122.02C9.54 121.967 9.56 121.92 9.6 121.88C9.64 121.84 9.69333 121.82 9.76 121.82C9.86667 121.82 9.98667 121.867 10.12 121.96C11.0533 122.533 11.8067 122.82 12.38 122.82C12.9 122.82 13.32 122.607 13.64 122.18C14.0267 121.673 14.34 120.827 14.58 119.64C14.82 118.44 14.94 117.327 14.94 116.3C14.94 115.34 14.8333 114.8 14.62 114.68C14.38 114.56 14.0733 114.5 13.7 114.5C13.4467 114.5 12.8933 114.553 12.04 114.66C11.88 114.673 11.7 114.693 11.5 114.72C11.3 114.747 11.0733 114.773 10.82 114.8C10.62 114.813 10.4467 114.933 10.3 115.16C10.1533 115.373 10.0267 115.7 9.92 116.14C9.52 117.713 8.95333 119.153 8.22 120.46C7.5 121.767 6.72667 122.86 5.9 123.74C5.07333 124.607 4.29333 125.24 3.56 125.64ZM10.4 152.14C10.36 151.847 10.18 151.6 9.86 151.4C9.55333 151.187 9.1 150.94 8.5 150.66C8.31333 150.593 8.06 150.48 7.74 150.32C7.47333 150.187 7.34 150.027 7.34 149.84C7.34 149.68 7.44 149.6 7.64 149.6C7.78667 149.6 7.95333 149.647 8.14 149.74C8.94 150.127 9.54 150.32 9.94 150.32C10.5533 150.32 10.8867 149.933 10.94 149.16C11.0333 147.76 11.0933 146.247 11.12 144.62C11.12 144.487 11.1 144.387 11.06 144.32C11.02 144.24 10.9667 144.2 10.9 144.2C10.78 144.2 10.6733 144.307 10.58 144.52C9.98 145.68 9.19333 146.747 8.22 147.72C7.24667 148.68 6.22667 149.487 5.16 150.14C4.10667 150.793 3.15333 151.26 2.3 151.54C2.16667 151.58 2.05333 151.6 1.96 151.6C1.85333 151.6 1.76667 151.58 1.7 151.54C1.64667 151.5 1.62 151.447 1.62 151.38C1.62 151.193 1.8 151.033 2.16 150.9C3.12 150.567 4.09333 150.027 5.08 149.28C6.06667 148.533 6.97333 147.6 7.8 146.48C8.64 145.347 9.28667 144.093 9.74 142.72C9.76667 142.613 9.78 142.547 9.78 142.52C9.78 142.413 9.74 142.327 9.66 142.26C9.59333 142.193 9.5 142.16 9.38 142.16C8.67333 142.16 7.82 142.193 6.82 142.26C5.83333 142.327 5.10667 142.413 4.64 142.52C4.48 142.56 4.33333 142.58 4.2 142.58C3.72 142.58 3.32667 142.413 3.02 142.08C2.71333 141.747 2.51333 141.353 2.42 140.9C2.40667 140.86 2.4 140.807 2.4 140.74C2.4 140.647 2.42 140.573 2.46 140.52C2.5 140.453 2.55333 140.42 2.62 140.42C2.74 140.42 2.88 140.527 3.04 140.74C3.30667 141.127 4.66 141.32 7.1 141.32C7.94 141.32 9.04667 141.287 10.42 141.22C10.6333 141.207 10.8 141.14 10.92 141.02C11.04 140.9 11.1 140.727 11.1 140.5C11.1 139.447 11.0467 138.553 10.94 137.82C10.8333 137.087 10.5933 136.667 10.22 136.56C9.92667 136.48 9.78 136.36 9.78 136.2C9.78 136.107 9.84 136.027 9.96 135.96C10.0933 135.893 10.2667 135.86 10.48 135.86C10.8933 135.86 11.2733 135.947 11.62 136.12C11.98 136.28 12.26 136.487 12.46 136.74C12.6733 136.98 12.78 137.207 12.78 137.42C12.78 137.527 12.7667 137.6 12.74 137.64C12.6067 137.907 12.5067 138.787 12.44 140.28C12.4 140.72 12.6467 140.94 13.18 140.94C13.6733 140.927 14.06 140.88 14.34 140.8C14.6333 140.72 14.9467 140.607 15.28 140.46L15.66 140.3C15.8067 140.233 15.9867 140.2 16.2 140.2C16.4933 140.2 16.7733 140.273 17.04 140.42C17.3067 140.553 17.52 140.727 17.68 140.94C17.84 141.153 17.92 141.353 17.92 141.54C17.92 141.7 17.8467 141.833 17.7 141.94C17.5667 142.033 17.3533 142.08 17.06 142.08C16.9133 142.08 16.8 142.073 16.72 142.06C16.44 142.02 15.7933 142 14.78 142L13.08 142.02C12.6267 142.02 12.3867 142.247 12.36 142.7C12.32 143.873 12.3 145.04 12.3 146.2C12.3 147.667 12.3267 149.093 12.38 150.48C12.3933 150.92 12.3267 151.32 12.18 151.68C12.0333 152.027 11.8467 152.293 11.62 152.48C11.3933 152.68 11.1733 152.78 10.96 152.78C10.64 152.78 10.4533 152.567 10.4 152.14ZM10.46 179.54C9.00667 179.54 7.71333 179.24 6.58 178.64C5.46 178.04 4.94667 176.96 5.04 175.4C5.10667 173.973 6.12667 172.793 8.1 171.86C8.35333 171.74 8.48 171.58 8.48 171.38C8.48 171.26 8.44 171.12 8.36 170.96C8.04 170.387 7.88 169.633 7.88 168.7C7.88 168.073 7.91333 167.427 7.98 166.76C7.99333 166.573 8.00667 166.367 8.02 166.14C8.03333 165.9 8.04 165.647 8.04 165.38C8.04 164.953 8 164.607 7.92 164.34C7.84 164.073 7.69333 163.873 7.48 163.74C7.30667 163.62 7.22 163.5 7.22 163.38C7.22 163.313 7.24 163.26 7.28 163.22C7.33333 163.18 7.40667 163.16 7.5 163.16C7.59333 163.16 7.7 163.18 7.82 163.22C8.38 163.393 8.78667 163.593 9.04 163.82C9.44 164.18 9.64 164.567 9.64 164.98C9.64 165.18 9.58 165.507 9.46 165.96C9.28667 166.68 9.18667 167.287 9.16 167.78L9.14 169.12C9.14 169.827 9.18667 170.353 9.28 170.7C9.36 171.007 9.55333 171.16 9.86 171.16C9.91333 171.16 10.0067 171.147 10.14 171.12C11.4867 170.693 12.3667 170.52 12.78 170.6C13.0467 170.653 13.2467 170.76 13.38 170.92C13.5267 171.08 13.6 171.253 13.6 171.44C13.6 171.667 13.5 171.86 13.3 172.02C13.1 172.18 12.82 172.253 12.46 172.24C12.34 172.227 12.14 172.22 11.86 172.22C10.9133 172.22 9.96 172.333 9 172.56C8.05333 172.787 7.26 173.16 6.62 173.68C5.98 174.187 5.66 174.847 5.66 175.66C5.66 176.527 6.02 177.18 6.74 177.62C7.46 178.06 8.36667 178.28 9.46 178.28C10.02 178.28 10.5867 178.22 11.16 178.1C11.7333 177.98 12.2733 177.813 12.78 177.6C12.98 177.507 13.1933 177.46 13.42 177.46C13.7267 177.46 13.9733 177.56 14.16 177.76C14.36 177.947 14.46 178.16 14.46 178.4C14.46 178.587 14.3933 178.76 14.26 178.92C14.1267 179.067 13.9333 179.167 13.68 179.22C12.6933 179.433 11.62 179.54 10.46 179.54Z" fill="#554A45"/>
</svg>
