<svg width="73" height="40" viewBox="0 0 73 40" fill="none" xmlns="http://www.w3.org/2000/svg">
<g filter="url(#filter0_d_73_124)">
<path d="M27.1662 10.9472H34.8102V11.7632H27.1662V10.9472ZM27.3222 13.7312H34.7142V20.4992H33.8502V14.5352H28.1622V20.5712H27.3222V13.7312ZM29.4222 11.0672H30.2742V14.3072H29.4222V11.0672ZM31.6542 11.0672H32.5182V14.3072H31.6542V11.0672ZM27.7062 18.9872H34.4622V19.7792H27.7062V18.9872ZM29.4942 14.2832H30.2742V19.5872H29.4942V14.2832ZM31.6542 14.2832H32.4342V19.5872H31.6542V14.2832ZM26.4462 9.75922L27.2622 10.0232C26.5182 12.0032 25.3662 13.9952 24.1302 15.3272C24.0462 15.1232 23.7942 14.6672 23.6262 14.4512C24.7542 13.3112 25.8102 11.5472 26.4462 9.75922ZM25.2582 12.8792L26.0982 12.0392L26.1102 12.0512V20.7632H25.2582V12.8792ZM42.0462 11.0192H45.4302V11.8112H42.0462V11.0192ZM40.9542 16.3712H46.0062V20.7392H45.1422V17.1512H41.7942V20.7752H40.9542V16.3712ZM41.3142 19.4552H45.5982V20.2472H41.3142V19.4552ZM42.3942 9.71122L43.2582 9.95122C42.6102 11.5472 41.5542 13.0472 40.4622 13.9952C40.3182 13.8392 39.9582 13.5272 39.7542 13.3952C40.8582 12.5312 41.8302 11.1632 42.3942 9.71122ZM45.1782 11.0192H45.3462L45.5022 10.9832L46.0662 11.2472C45.0342 14.2232 42.5622 16.1312 40.0062 17.0552C39.8982 16.8272 39.6702 16.4912 39.4902 16.3232C41.9022 15.5672 44.3022 13.7192 45.1782 11.1752V11.0192ZM41.9742 11.6432C42.7182 13.3472 44.4822 15.2312 47.1222 16.0352C46.9422 16.2032 46.6902 16.5632 46.5702 16.7792C43.8942 15.8432 42.1302 13.8512 41.3142 12.0632L41.9742 11.6432ZM36.0222 12.3032H40.2462V13.1552H36.0222V12.3032ZM37.8342 9.72322H38.6862V20.7512H37.8342V9.72322ZM37.7982 12.8312L38.3622 13.0232C37.9662 14.9552 37.1142 17.2952 36.2142 18.5072C36.1182 18.2672 35.9022 17.9192 35.7342 17.7152C36.5862 16.6352 37.4382 14.5592 37.7982 12.8312ZM38.6262 13.6352C38.9142 13.9232 39.9702 15.2072 40.2102 15.5312L39.6702 16.2272C39.3822 15.6992 38.5182 14.4632 38.1822 14.0312L38.6262 13.6352Z" fill="black"/>
<rect x="4.25" y="0.25" width="64.5" height="31.5" rx="15.25" stroke="black" stroke-width="0.5"/>
</g>
<defs>
<filter id="filter0_d_73_124" x="0" y="0" width="73" height="40" filterUnits="userSpaceOnUse" color-interpolation-filters="sRGB">
<feFlood flood-opacity="0" result="BackgroundImageFix"/>
<feColorMatrix in="SourceAlpha" type="matrix" values="0 0 0 0 0 0 0 0 0 0 0 0 0 0 0 0 0 0 127 0" result="hardAlpha"/>
<feOffset dy="4"/>
<feGaussianBlur stdDeviation="2"/>
<feComposite in2="hardAlpha" operator="out"/>
<feColorMatrix type="matrix" values="0 0 0 0 0 0 0 0 0 0 0 0 0 0 0 0 0 0 0.25 0"/>
<feBlend mode="normal" in2="BackgroundImageFix" result="effect1_dropShadow_73_124"/>
<feBlend mode="normal" in="SourceGraphic" in2="effect1_dropShadow_73_124" result="shape"/>
</filter>
</defs>
</svg>
