<svg width="310" height="4" viewBox="0 0 310 4" fill="none" xmlns="http://www.w3.org/2000/svg">
<g clip-path="url(#clip0_136_131)">
<path d="M13.8236 1.67188C12.9141 1.67188 12.1606 2.01352 12.1606 2.43308C12.1606 2.85264 12.9011 3.19429 13.8236 3.19429C14.746 3.19429 15.4736 2.85264 15.4736 2.43308C15.4736 2.01352 14.733 1.67188 13.8236 1.67188Z" fill="#6E5E16"/>
<path d="M18.6826 1.67188C17.7732 1.67188 17.0326 2.01352 17.0326 2.43308C17.0326 2.85264 17.7732 3.19429 18.6826 3.19429C19.5921 3.19429 20.3326 2.85264 20.3326 2.43308C20.3326 2.01352 19.5921 1.67188 18.6826 1.67188Z" fill="#6E5E16"/>
<path d="M7.00273 1.05469H2.75432L0.0519683 2.39729L0 2.43325L0.0519683 2.46921L2.75432 3.81781H7.00273L10.8094 2.46921L10.9913 2.43325L10.8094 2.39729L7.00273 1.05469Z" fill="#6E5E16"/>
<path d="M27.2314 1.48047H24.2952L21.6708 2.4095L21.5539 2.43348L21.6708 2.45745L24.2952 3.38648H27.2314L29.0893 2.45745L29.1282 2.43348L29.0893 2.4095L27.2314 1.48047Z" fill="#6E5E16"/>
<path d="M30.6613 2.43311H117.565" stroke="#6E5E16" stroke-width="0.82" stroke-miterlimit="10"/>
<path d="M295.934 1.67188C295.024 1.67188 294.271 2.01352 294.271 2.43308C294.271 2.85264 295.011 3.19429 295.934 3.19429C296.856 3.19429 297.584 2.85264 297.584 2.43308C297.584 2.01352 296.843 1.67188 295.934 1.67188Z" fill="#6E5E16"/>
<path d="M291.075 1.67188C290.165 1.67188 289.425 2.01352 289.425 2.43308C289.425 2.85264 290.165 3.19429 291.075 3.19429C291.984 3.19429 292.725 2.85264 292.725 2.43308C292.725 2.01352 291.984 1.67188 291.075 1.67188Z" fill="#6E5E16"/>
<path d="M307.003 1.05469H302.754L298.948 2.39729L298.766 2.43325L298.948 2.46921L302.754 3.81781H307.003L309.705 2.46921L309.757 2.43325L309.705 2.39729L307.003 1.05469Z" fill="#6E5E16"/>
<path d="M285.462 1.48047H282.526L280.668 2.4095L280.629 2.43348L280.668 2.45745L282.526 3.38648H285.462L288.086 2.45745L288.203 2.43348L288.086 2.4095L285.462 1.48047Z" fill="#6E5E16"/>
<path d="M279.096 2.43311H192.192" stroke="#6E5E16" stroke-width="0.82" stroke-miterlimit="10"/>
<path d="M180.083 1.10285C179.044 1.10285 177.953 1.15679 176.861 1.25869C175.185 1.41453 172.938 1.81011 170.755 2.21169C170.482 2.12778 170.235 2.06185 170.001 1.98993C169.729 1.91201 169.469 1.84008 169.157 1.74418L168.962 1.68424C168.234 1.45648 167.559 1.2467 166.922 1.06089C164.766 0.425556 162.869 0.0779188 161.297 0.0179813C161.024 0.00599375 160.751 0 160.504 0C159.27 0 156.282 0.119875 155.047 1.22872C154.97 1.30064 154.918 1.37257 154.866 1.4385C154.814 1.36658 154.762 1.30064 154.684 1.22872C153.462 0.119875 150.461 0 149.227 0C148.967 0 148.694 0 148.435 0.0179813C146.862 0.0779188 144.979 0.43155 142.809 1.06089C142.159 1.25269 141.458 1.46847 140.717 1.70223L140.574 1.74418C140.288 1.83409 140.029 1.90601 139.782 1.97794L139.691 2.00191C139.47 2.06784 139.236 2.12778 138.976 2.21169C136.794 1.81011 134.546 1.41453 132.883 1.25869C131.779 1.15679 130.7 1.10285 129.648 1.10285C123.737 1.10285 120.839 2.74514 120.32 3.0748L119.436 3.63221L120.567 3.19467C124.399 1.71421 128.466 1.18077 132.532 1.63629C134.286 1.82809 136.157 2.07384 138.015 2.54735C136.859 3.12275 134.949 3.47638 133 3.47638C132.285 3.47638 131.597 3.42843 130.973 3.33253L130.843 3.48836C131.714 3.70414 132.675 3.81203 133.701 3.81203C134.884 3.81203 136.079 3.66218 137.066 3.39846C137.417 3.30256 137.872 3.15871 138.301 3.02085L138.392 2.99088C138.69 2.89498 138.976 2.80508 139.21 2.73315H139.249H139.262C139.899 2.82306 140.561 2.92495 141.263 3.03284L141.328 3.04483C143.835 3.43442 146.681 3.87796 149.279 3.87796C150.916 3.87796 152.28 3.70414 153.423 3.34451C154.047 3.15271 154.58 2.85303 154.866 2.50539C155.151 2.85902 155.684 3.15271 156.308 3.34451C157.451 3.70414 158.802 3.87796 160.452 3.87796C163.038 3.87796 165.896 3.43442 168.416 3.04483C169.118 2.93694 169.806 2.82905 170.443 2.73915H170.495C170.742 2.80508 171.041 2.90697 171.392 3.01486C171.833 3.15871 172.288 3.30855 172.652 3.40445C173.639 3.66818 174.834 3.81802 176.017 3.81802C177.043 3.81802 178.004 3.71013 178.875 3.49436L178.745 3.33852C178.108 3.43442 177.433 3.48237 176.718 3.48237C174.769 3.48237 172.86 3.12874 171.716 2.55334C173.587 2.08583 175.458 1.84008 177.199 1.64229C181.278 1.18676 185.345 1.7262 189.178 3.20066L190.308 3.63821L189.425 3.08079C188.905 2.75113 185.995 1.10884 180.083 1.10884V1.10285ZM154.164 2.07384C153.722 3.24861 151.202 3.50035 149.149 3.50035C148.149 3.50035 147.044 3.44641 145.849 3.33253C144.693 3.22464 143.342 3.00287 142.003 2.7811L141.861 2.75713C141.237 2.65523 140.639 2.55933 140.081 2.47542C140.444 2.36753 140.808 2.25365 141.146 2.15176L141.328 2.09781C142.055 1.87005 142.731 1.66027 143.355 1.47446C144.888 1.02493 146.525 0.695275 147.967 0.545432C148.435 0.497482 148.98 0.467513 149.526 0.467513C151.293 0.467513 152.8 0.725244 153.657 1.17478C154.099 1.40254 154.281 1.73819 154.151 2.07384H154.164ZM167.767 2.76911H167.728C166.416 2.99688 165.051 3.21865 163.895 3.32653C162.713 3.44041 161.595 3.49436 160.595 3.49436C158.542 3.49436 156.022 3.24861 155.58 2.06784C155.45 1.73819 155.645 1.40254 156.074 1.16878C156.931 0.71925 158.438 0.461519 160.205 0.461519C160.751 0.461519 161.297 0.485494 161.764 0.539438C163.207 0.689282 164.844 1.01894 166.377 1.46847C167.013 1.65428 167.702 1.87005 168.429 2.09781L168.585 2.14576C168.923 2.25365 169.287 2.36154 169.651 2.46943C169.053 2.55933 168.429 2.66123 167.767 2.76911Z" fill="#6E5E16"/>
</g>
<defs>
<clipPath id="clip0_136_131">
<rect width="309.757" height="3.87196" fill="white"/>
</clipPath>
</defs>
</svg>
